<svg xmlns="http://www.w3.org/2000/svg" viewBox="0 0 141.4 30.8" class="styles__icon--XMT1B styles__dark--2kkeo"><path xmlns="http://www.w3.org/2000/svg" d="M77.5 5.7c-1.2-.7-2.6-1.1-4-1.1-4.4 0-8 3.6-8 8s3.6 8 8 8c1.4 0 2.7-.4 3.8-1L75.9 17c-.7.4-1.5.6-2.4.6-2.8 0-5-2.2-5-5s2.2-5 5-5c.9 0 1.8.3 2.6.7l1.4-2.6zm-20 13.2c0 .6.7 1.3 1.3 1.3h8.6L65.5 17h-5V5.1h-2.9l-.1 13.8zM26 13c0-7.2-5.8-13-13-13S0 5.8 0 13s5.8 13 13 13c.8 0 1.5-.1 2.2-.2v5.1h3.7v-6.3C23.1 22.4 26 18 26 13zm-7.2 6v-4.2l-3.7 1V21c-.7.2-1.4.3-2.2.3-4.6 0-8.4-3.8-8.4-8.4S8.3 4.6 13 4.6s8.4 3.8 8.4 8.4c0 2.4-1 4.5-2.6 6zM38 20.1h-8.5c-.6 0-1.3-.7-1.3-1.3V5h2.9v12h5.1V5.1h3v13.8c0 .6-.7 1.2-1.2 1.2zM84.4 4.6c-4.4 0-8 3.6-8 8s3.6 8 8 8 8-3.6 8-8c-.1-4.4-3.6-8-8-8zm0 13c-2.8 0-5-2.2-5-5s2.2-5 5-5 5 2.2 5 5-2.3 5-5 5zM49.8 5.1h-2.9L40.3 20h3.1l1.5-3.3h6.8l.1.3 1.3 3h3.1L49.8 5.1zM46 14.3l2.4-5.4 2.4 5.4H46zm93.8 4l-5.4-12.5c-.4-.6-.9-.8-1.7-.8-.8 0-1.3.3-1.7.9l-4 9.1-4-9.1c-.3-.6-.9-.9-1.7-.9s-1.3.3-1.7.9l-4 9.2-4-9.2c-.1-.7-.6-.9-1.4-.9-.8 0-1.3.3-1.7.9l-4 9.1-4-9.1c-.2-.7-.8-.9-1.6-.9s-1.3.3-1.7.9l-5.4 12.5c-.7 1.9 1.9 3 2.8 1.4l4.2-9.9 4.2 9.9c.6 1 2.3 1 2.8 0l4.2-9.9 4.2 9.9c.3.5.7.7 1.2.7h.4c.5 0 .9-.2 1.2-.7l4.2-9.9 4.2 9.9c.5 1 2.2 1 2.8 0l4.2-9.9 4.2 9.9c1.2 1.5 3.9.4 3.2-1.5zm-.2-13.1c-1 0-1.8.7-1.8 1.7s.8 1.7 1.8 1.7c.9 0 1.8-.7 1.8-1.7 0-.9-.9-1.7-1.8-1.7zm0 3.2c-.8 0-1.4-.6-1.4-1.5 0-.8.6-1.4 1.4-1.4.8 0 1.4.6 1.4 1.4 0 .9-.6 1.5-1.4 1.5zm.8-1.8c0-.4-.2-.6-.7-.6h-.8v2h.3v-.9h.4l.5.9h.3l-.6-.9c.4 0 .6-.2.6-.5zm-1.2.3v-.7h.4c.2 0 .4 0 .4.3s-.2.3-.5.3l-.3.1z"></path></svg>